<?xml version="1.0" encoding="UTF-8"?>
<svg width="20px" height="22px" viewBox="0 0 20 22" version="1.1" xmlns="http://www.w3.org/2000/svg" xmlns:xlink="http://www.w3.org/1999/xlink">
    <title>Shape 4</title>
    <g id="Page-4" stroke="none" stroke-width="1" fill="none" fill-rule="evenodd">
        <g id="zap" transform="translate(-4, 0)" fill="#FE5F03">
            <path d="M14,0 L16,0 L16,8 L24,8 L24,10 L24,12 L22,12 L22,10 L16,10 L14,10 L14,8 L14,4 L12,4 L12,2 L14,2 L14,0 Z M10,6 L10,4 L12,4 L12,6 L10,6 Z M8,8 L8,6 L10,6 L10,8 L8,8 Z M6,10 L6,8 L8,8 L8,10 L6,10 Z M16,18 L16,20 L14,20 L14,22 L12,22 L12,14 L4,14 L4,12 L4,10 L6,10 L6,12 L12,12 L14,12 L14,14 L14,18 L16,18 Z M18,16 L18,18 L16,18 L16,16 L18,16 Z M20,14 L20,16 L18,16 L18,14 L20,14 Z M20,14 L22,14 L22,12 L20,12 L20,14 Z" id="Shape"></path>
        </g>
    </g>
</svg>