<?xml version="1.0" encoding="UTF-8"?>
<svg width="18px" height="20px" viewBox="0 0 18 20" version="1.1" xmlns="http://www.w3.org/2000/svg" xmlns:xlink="http://www.w3.org/1999/xlink">
    <title>DayDone</title>
    <g id="Page-2" stroke="none" stroke-width="1" fill="none" fill-rule="evenodd">
        <g id="DayDone" fill="#5E31BB">
            <path d="M12,0 L14,0 L14,2 L16,2 L18,2 L18,6 L18,8 L18,20 L16,20 L2,20 L0,20 L0,8 L0,6 L0,2 L2,2 L4,2 L4,0 L6,0 L6,2 L12,2 L12,0 Z M16,6 L16,4 L2,4 L2,6 L16,6 Z M16,8 L2,8 L2,18 L16,18 L16,8 Z M13,10 L13,12 L11,12 L11,10 L13,10 Z M9,14 L9,12 L11,12 L11,14 L9,14 Z M7,14 L9,14 L9,16 L7,16 L7,14 Z M7,14 L5,14 L5,12 L7,12 L7,14 Z" id="Shape"></path>
        </g>
    </g>
</svg>