<?xml version="1.0" encoding="UTF-8"?>
<svg width="14px" height="20px" viewBox="0 0 14 20" version="1.1" xmlns="http://www.w3.org/2000/svg" xmlns:xlink="http://www.w3.org/1999/xlink">
    <title>Shape 3</title>
    <g id="Page-4" stroke="none" stroke-width="1" fill="none" fill-rule="evenodd">
        <g id="zap" transform="translate(-39, -6)" fill="#FE5F03">
            <path d="M47,6 L45,6 L45,8 L43,8 L43,12 L41,12 L41,16 L39,16 L39,22 L41,22 L41,24 L43,24 L43,26 L49,26 L49,24 L51,24 L51,22 L53,22 L53,16 L51,16 L51,12 L49,12 L49,8 L47,8 L47,6 Z M47,8 L47,12 L49,12 L49,16 L51,16 L51,22 L49,22 L49,24 L43,24 L43,22 L41,22 L41,16 L43,16 L43,12 L45,12 L45,8 L47,8 Z" id="Shape"></path>
        </g>
    </g>
</svg>