<?xml version="1.0" encoding="UTF-8"?>
<svg width="20px" height="14px" viewBox="0 0 20 14" version="1.1" xmlns="http://www.w3.org/2000/svg" xmlns:xlink="http://www.w3.org/1999/xlink">
    <title>Group</title>
    <g id="Page-2" stroke="none" stroke-width="1" fill="none" fill-rule="evenodd">
        <g id="Energy" fill="#5E31BB">
            <path d="M2,0 L0,0 L0,14 L2,14 L6,14 L6,12 L2,12 L2,2 L6,2 L6,0 L2,0 Z M12,0 L16,0 L18,0 L18,4 L20,4 L20,10 L18,10 L18,14 L16,14 L12,14 L12,12 L16,12 L16,2 L12,2 L12,0 Z M8,2 L10,2 L10,6 L14,6 L14,8 L12,8 L12,10 L10,10 L10,12 L8,12 L8,8 L4,8 L4,6 L6,6 L6,4 L8,4 L8,2 Z" id="Shape"></path>
        </g>
    </g>
</svg>