<?xml version="1.0" encoding="UTF-8"?>
<svg width="14px" height="20px" viewBox="0 0 14 20" version="1.1" xmlns="http://www.w3.org/2000/svg" xmlns:xlink="http://www.w3.org/1999/xlink">
    <title>Shape 2</title>
    <g id="Page-4" stroke="none" stroke-width="1" fill="none" fill-rule="evenodd">
        <g id="zap" transform="translate(-61, -6)" fill="#FE5F03">
            <path d="M69,6 L67,6 L67,8 L65,8 L65,12 L63,12 L63,16 L61,16 L61,22 L63,22 L63,24 L65,24 L65,26 L71,26 L71,24 L73,24 L73,22 L75,22 L75,16 L73,16 L73,12 L71,12 L71,8 L69,8 L69,6 Z M69,8 L69,12 L71,12 L71,16 L73,16 L73,19 L71,19 L65,19 L63,19 L63,16 L65,16 L65,12 L67,12 L67,8 L69,8 Z" id="Shape"></path>
        </g>
    </g>
</svg>