<?xml version="1.0" encoding="UTF-8"?>
<svg width="22px" height="20px" viewBox="0 0 22 20" version="1.1" xmlns="http://www.w3.org/2000/svg" xmlns:xlink="http://www.w3.org/1999/xlink">
    <title>heartv</title>
    <g id="Page-4" stroke="none" stroke-width="1" fill="none" fill-rule="evenodd">
        <g id="heartv" fill="#AD00FF">
            <path d="M8,0 L4,0 L4,2 L2,2 L2,4 L0,4 L0,10 L2,10 L2,12 L4,12 L4,14 L6,14 L6,16 L8,16 L8,18 L10,18 L10,20 L12,20 L12,18 L14,18 L14,16 L16,16 L16,14 L18,14 L18,12 L20,12 L20,10 L22,10 L22,4 L20,4 L20,2 L18,2 L18,0 L14,0 L14,2 L12,2 L12,4 L10,4 L10,2 L8,2 L8,0 Z M8,2 L8,4 L10,4 L10,6 L12,6 L12,4 L14,4 L14,2 L18,2 L18,4 L20,4 L20,10 L18,10 L18,12 L16,12 L16,14 L14,14 L14,16 L12,16 L12,18 L10,18 L10,16 L8,16 L8,14 L6,14 L6,12 L4,12 L4,10 L2,10 L2,4 L4,4 L4,2 L8,2 Z" id="Shape"></path>
        </g>
    </g>
</svg>