<?xml version="1.0" encoding="UTF-8"?>
<svg width="18px" height="20px" viewBox="0 0 18 20" version="1.1" xmlns="http://www.w3.org/2000/svg" xmlns:xlink="http://www.w3.org/1999/xlink">
    <title>human-handsupg</title>
    <g id="Page-4" stroke="none" stroke-width="1" fill="none" fill-rule="evenodd">
        <g id="human-handsupg" fill="#3EB85F">
            <path d="M7,0 L11,0 L11,4 L7,4 L7,0 Z M4,5 L14,5 L14,7 L12,7 L12,14 L12,20 L10,20 L10,14 L8,14 L8,20 L6,20 L6,14 L6,7 L4,7 L4,5 Z M2,3 L2,5 L4,5 L4,3 L2,3 Z M2,3 L0,3 L0,1 L2,1 L2,3 Z M16,3 L16,5 L14,5 L14,3 L16,3 Z M16,3 L16,1 L18,1 L18,3 L16,3 Z" id="Shape"></path>
        </g>
    </g>
</svg>