<?xml version="1.0" encoding="UTF-8"?>
<svg width="18px" height="20px" viewBox="0 0 18 20" version="1.1" xmlns="http://www.w3.org/2000/svg" xmlns:xlink="http://www.w3.org/1999/xlink">
    <title>human-handsdowng</title>
    <g id="Page-4" stroke="none" stroke-width="1" fill="none" fill-rule="evenodd">
        <g id="human-handsdowng" fill="#3EB85F">
            <path d="M7,0 L11,0 L11,4 L7,4 L7,0 Z M4,5 L14,5 L14,7 L12,7 L12,14 L12,20 L10,20 L10,14 L8,14 L8,20 L6,20 L6,14 L6,7 L4,7 L4,5 Z M2,9 L4,9 L4,7 L2,7 L2,9 Z M2,9 L2,11 L0,11 L0,9 L2,9 Z M16,9 L14,9 L14,7 L16,7 L16,9 Z M16,9 L18,9 L18,11 L16,11 L16,9 Z" id="Shape"></path>
        </g>
    </g>
</svg>