<?xml version="1.0" encoding="UTF-8"?>
<svg width="24px" height="16px" viewBox="0 0 24 16" version="1.1" xmlns="http://www.w3.org/2000/svg" xmlns:xlink="http://www.w3.org/1999/xlink">
    <title>bed</title>
    <g id="Page-2" stroke="none" stroke-width="1" fill="none" fill-rule="evenodd">
        <g id="bed" fill="#5E31BB">
            <path d="M0,0 L2,0 L2,12 L12,12 L12,4 L14,4 L22,4 L22,6 L14,6 L14,12 L22,12 L22,6 L24,6 L24,16 L22,16 L22,14 L2,14 L2,16 L0,16 L0,0 Z M3,5 L5,5 L5,9 L3,9 L3,5 Z M9,9 L9,11 L5,11 L5,9 L9,9 Z M9,5 L11,5 L11,9 L9,9 L9,5 Z M9,5 L5,5 L5,3 L9,3 L9,5 Z" id="Shape"></path>
        </g>
    </g>
</svg>