<?xml version="1.0" encoding="UTF-8"?>
<svg width="27px" height="17px" viewBox="0 0 27 17" version="1.1" xmlns="http://www.w3.org/2000/svg" xmlns:xlink="http://www.w3.org/1999/xlink">
    <title>Slice</title>
    <g id="Page-2" stroke="none" stroke-width="1" fill="none" fill-rule="evenodd">
        <g id="Power" transform="translate(3, 1)" fill="#5E31BB">
            <path d="M14,0 L8,0 L8,2 L4,2 L4,4 L2,4 L2,6 L0,6 L0,12 L2,12 L2,14 L4,14 L4,12 L2,12 L2,6 L4,6 L4,4 L8,4 L8,2 L14,2 L14,0 Z M22,6 L20,6 L20,12 L18,12 L18,14 L20,14 L20,12 L22,12 L22,6 Z M9,8 L13,8 L13,12 L9,12 L9,8 Z M15,6 L13,6 L13,8 L15,8 L15,6 Z M17,4 L17,6 L15,6 L15,4 L17,4 Z M17,4 L17,2 L19,2 L19,4 L17,4 Z" id="Shape"></path>
        </g>
    </g>
</svg>