<?xml version="1.0" encoding="UTF-8"?>
<svg width="211px" height="110px" viewBox="0 0 211 110" version="1.1" xmlns="http://www.w3.org/2000/svg" xmlns:xlink="http://www.w3.org/1999/xlink">
    <title>Slice</title>
    <g id="Page-4" stroke="none" stroke-width="1" fill="none" fill-rule="evenodd">
        <g id="heartv" transform="translate(175, 49)" fill="#AD00FF">
            <path d="M8,0 L4,0 L4,2 L2,2 L2,4 L0,4 L0,10 L2,10 L2,12 L4,12 L4,14 L6,14 L6,16 L8,16 L8,18 L10,18 L10,20 L12,20 L12,18 L14,18 L14,16 L16,16 L16,14 L18,14 L18,12 L20,12 L20,10 L22,10 L22,4 L20,4 L20,2 L18,2 L18,0 L14,0 L14,2 L12,2 L12,4 L10,4 L10,2 L8,2 L8,0 Z M8,2 L8,4 L10,4 L10,6 L12,6 L12,4 L14,4 L14,2 L18,2 L18,4 L20,4 L20,10 L18,10 L18,12 L16,12 L16,14 L14,14 L14,16 L12,16 L12,18 L10,18 L10,16 L8,16 L8,14 L6,14 L6,12 L4,12 L4,10 L2,10 L2,4 L4,4 L4,2 L8,2 Z" id="Shape"></path>
        </g>
        <g id="human-handsdowng" transform="translate(96, 79)" fill="#3EB85F">
            <path d="M7,0 L11,0 L11,4 L7,4 L7,0 Z M4,5 L14,5 L14,7 L12,7 L12,14 L12,20 L10,20 L10,14 L8,14 L8,20 L6,20 L6,14 L6,7 L4,7 L4,5 Z M2,9 L4,9 L4,7 L2,7 L2,9 Z M2,9 L2,11 L0,11 L0,9 L2,9 Z M16,9 L14,9 L14,7 L16,7 L16,9 Z M16,9 L18,9 L18,11 L16,11 L16,9 Z" id="Shape"></path>
        </g>
        <g id="human-handsupg" transform="translate(109, 9)" fill="#3EB85F">
            <path d="M7,0 L11,0 L11,4 L7,4 L7,0 Z M4,5 L14,5 L14,7 L12,7 L12,14 L12,20 L10,20 L10,14 L8,14 L8,20 L6,20 L6,14 L6,7 L4,7 L4,5 Z M2,3 L2,5 L4,5 L4,3 L2,3 Z M2,3 L0,3 L0,1 L2,1 L2,3 Z M16,3 L16,5 L14,5 L14,3 L16,3 Z M16,3 L16,1 L18,1 L18,3 L16,3 Z" id="Shape"></path>
        </g>
        <g id="human-rung" transform="translate(27, 63)" fill="#3EB85F">
            <polygon id="Path" points="8 0 6 0 6 2 4 2 4 4 6 4 6 2 8 2 8 4 10 4 10 6 8 6 8 8 6 8 6 10 4 10 4 12 2 12 2 10 0 10 0 12 2 12 2 14 4 14 4 12 6 12 8 12 8 14 10 14 10 16 8 16 8 18 10 18 10 16 12 16 12 14 10 14 10 12 10 10 12 10 12 8 14 8 14 10 16 10 16 12 18 12 18 10 20 10 20 8 18 8 18 10 16 10 16 8 14 8 14 6 16 6 16 2 12 2 12 4 10 4 10 2 8 2"></polygon>
        </g>
        <g id="humang" transform="translate(78, 48)" fill="#3EB85F">
            <path d="M7,0 L11,0 L11,4 L7,4 L7,0 Z M0,5 L18,5 L18,7 L12,7 L12,14 L12,20 L10,20 L10,14 L8,14 L8,20 L6,20 L6,14 L6,7 L0,7 L0,5 Z" id="Shape"></path>
        </g>
    </g>
</svg>