<?xml version="1.0" encoding="UTF-8"?>
<svg width="18px" height="18px" viewBox="0 0 18 18" version="1.1" xmlns="http://www.w3.org/2000/svg" xmlns:xlink="http://www.w3.org/1999/xlink">
    <title>synergy</title>
    <g id="Page-2" stroke="none" stroke-width="1" fill="none" fill-rule="evenodd">
        <g id="synergy" fill="#63B669">
            <path d="M4,0 L0,0 L0,4 L4,4 L4,0 Z M4,14 L0,14 L0,18 L4,18 L4,14 Z M14,0 L18,0 L18,4 L14,4 L14,0 Z M18,14 L14,14 L14,18 L18,18 L18,14 Z M5,5 L7,5 L7,7 L5,7 L5,5 Z M9,7 L7,7 L7,9 L7,11 L5,11 L5,13 L7,13 L7,11 L9,11 L11,11 L11,13 L13,13 L13,11 L11,11 L11,9 L11,7 L13,7 L13,5 L11,5 L11,7 L9,7 Z" id="Shape"></path>
        </g>
    </g>
</svg>