<?xml version="1.0" encoding="UTF-8"?>
<svg width="18px" height="20px" viewBox="0 0 18 20" version="1.1" xmlns="http://www.w3.org/2000/svg" xmlns:xlink="http://www.w3.org/1999/xlink">
    <title>human-height</title>
    <g id="Page-2" stroke="none" stroke-width="1" fill="none" fill-rule="evenodd">
        <g id="human-height" fill="#63B669">
            <path d="M3,0 L7,0 L7,4 L3,4 L3,0 Z M0,5 L10,5 L10,14 L8,14 L8,20 L6,20 L6,14 L4,14 L4,20 L2,20 L2,14 L0,14 L0,5 Z M18,1 L12,1 L12,3 L18,3 L18,1 Z M14,5 L18,5 L18,7 L14,7 L14,5 Z M18,9 L12,9 L12,11 L18,11 L18,9 Z M12,17 L18,17 L18,19 L12,19 L12,17 Z M18,13 L14,13 L14,15 L18,15 L18,13 Z" id="Shape"></path>
        </g>
    </g>
</svg>