<?xml version="1.0" encoding="UTF-8"?>
<svg width="14px" height="20px" viewBox="0 0 14 20" version="1.1" xmlns="http://www.w3.org/2000/svg" xmlns:xlink="http://www.w3.org/1999/xlink">
    <title>drop</title>
    <g id="Page-4" stroke="none" stroke-width="1" fill="none" fill-rule="evenodd">
        <g id="drop" fill="#FE5F03">
            <path d="M8,0 L6,0 L6,2 L4,2 L4,6 L2,6 L2,10 L0,10 L0,16 L2,16 L2,18 L4,18 L4,20 L10,20 L10,18 L12,18 L12,16 L14,16 L14,10 L12,10 L12,6 L10,6 L10,2 L8,2 L8,0 Z M8,2 L8,6 L10,6 L10,10 L12,10 L12,16 L10,16 L10,18 L4,18 L4,16 L2,16 L2,10 L4,10 L4,6 L6,6 L6,2 L8,2 Z" id="Shape"></path>
        </g>
    </g>
</svg>