<?xml version="1.0" encoding="UTF-8"?>
<svg width="96px" height="55px" viewBox="0 0 96 55" version="1.1" xmlns="http://www.w3.org/2000/svg" xmlns:xlink="http://www.w3.org/1999/xlink">
    <title>zap</title>
    <g id="Page-4" stroke="none" stroke-width="1" fill="none" fill-rule="evenodd">
        <g id="zap" fill="#FE5F03">
            <path d="M14,0 L16,0 L16,8 L24,8 L24,10 L24,12 L22,12 L22,10 L16,10 L14,10 L14,8 L14,4 L12,4 L12,2 L14,2 L14,0 Z M10,6 L10,4 L12,4 L12,6 L10,6 Z M8,8 L8,6 L10,6 L10,8 L8,8 Z M6,10 L6,8 L8,8 L8,10 L6,10 Z M16,18 L16,20 L14,20 L14,22 L12,22 L12,14 L4,14 L4,12 L4,10 L6,10 L6,12 L12,12 L14,12 L14,14 L14,18 L16,18 Z M18,16 L18,18 L16,18 L16,16 L18,16 Z M20,14 L20,16 L18,16 L18,14 L20,14 Z M20,14 L22,14 L22,12 L20,12 L20,14 Z" id="Shape"></path>
            <path d="M0,37 L2,37 L16,37 L18,37 L18,55 L16,55 L2,55 L0,55 L0,37 Z M16,53 L16,39 L2,39 L2,53 L16,53 Z" id="Shape"></path>
            <polygon id="Path" points="88 6 90 6 90 8 92 8 92 12 94 12 94 16 96 16 96 22 94 22 94 24 92 24 92 26 86 26 86 24 84 24 84 22 82 22 82 16 84 16 84 12 86 12 86 8 88 8"></polygon>
            <path d="M69,6 L67,6 L67,8 L65,8 L65,12 L63,12 L63,16 L61,16 L61,22 L63,22 L63,24 L65,24 L65,26 L71,26 L71,24 L73,24 L73,22 L75,22 L75,16 L73,16 L73,12 L71,12 L71,8 L69,8 L69,6 Z M69,8 L69,12 L71,12 L71,16 L73,16 L73,19 L71,19 L65,19 L63,19 L63,16 L65,16 L65,12 L67,12 L67,8 L69,8 Z" id="Shape"></path>
            <path d="M47,6 L45,6 L45,8 L43,8 L43,12 L41,12 L41,16 L39,16 L39,22 L41,22 L41,24 L43,24 L43,26 L49,26 L49,24 L51,24 L51,22 L53,22 L53,16 L51,16 L51,12 L49,12 L49,8 L47,8 L47,6 Z M47,8 L47,12 L49,12 L49,16 L51,16 L51,22 L49,22 L49,24 L43,24 L43,22 L41,22 L41,16 L43,16 L43,12 L45,12 L45,8 L47,8 Z" id="Shape"></path>
            <path d="M14,0 L16,0 L16,8 L24,8 L24,10 L24,12 L22,12 L22,10 L16,10 L14,10 L14,8 L14,4 L12,4 L12,2 L14,2 L14,0 Z M10,6 L10,4 L12,4 L12,6 L10,6 Z M8,8 L8,6 L10,6 L10,8 L8,8 Z M6,10 L6,8 L8,8 L8,10 L6,10 Z M16,18 L16,20 L14,20 L14,22 L12,22 L12,14 L4,14 L4,12 L4,10 L6,10 L6,12 L12,12 L14,12 L14,14 L14,18 L16,18 Z M18,16 L18,18 L16,18 L16,16 L18,16 Z M20,14 L20,16 L18,16 L18,14 L20,14 Z M20,14 L22,14 L22,12 L20,12 L20,14 Z" id="Shape"></path>
        </g>
    </g>
</svg>